<svg width="605" height="605" viewBox="0 0 605 605" fill="none" xmlns="http://www.w3.org/2000/svg">
<path d="M374.156 95.4085C317.08 69.0547 248.316 67.7358 189.026 87.6161C129.216 107.69 67.3606 158.316 61.7099 225.556C57.5233 274.9 96.3159 305.694 103.104 351.699C107.23 379.637 94.2226 403.729 92.214 430.712C90.5079 453.702 98.7359 475.615 113.994 492.651C161.184 545.601 253.265 566.062 308.719 513.948C330.499 493.438 349.859 465.233 379.407 455.129C438.806 434.85 529.581 429.719 538.522 350.464C543.967 302.161 514.238 257.403 489.263 218.792C457.985 170.61 428.34 120.443 374.156 95.4085Z" fill="#7E42FF"/>
<path opacity="0.7" d="M374.156 95.4085C317.08 69.0547 248.316 67.7358 189.026 87.6161C129.216 107.69 67.3606 158.316 61.7099 225.556C57.5233 274.9 96.3159 305.694 103.104 351.699C107.23 379.637 94.2226 403.729 92.214 430.712C90.5079 453.702 98.7359 475.615 113.994 492.651C161.184 545.601 253.265 566.062 308.719 513.948C330.499 493.438 349.859 465.233 379.407 455.129C438.806 434.85 529.581 429.719 538.522 350.464C543.967 302.161 514.238 257.403 489.263 218.792C457.985 170.61 428.34 120.443 374.156 95.4085Z" fill="white"/>
<path d="M374.156 95.4085C317.08 69.0547 248.316 67.7358 189.026 87.6161C129.216 107.69 67.3606 158.316 61.7099 225.556C57.5233 274.9 96.3159 305.694 103.104 351.699C107.23 379.637 94.2226 403.729 92.214 430.712C90.5079 453.702 98.7359 475.615 113.994 492.651C161.184 545.601 253.265 566.062 308.719 513.948C330.499 493.438 349.859 465.233 379.407 455.129C438.806 434.85 529.581 429.719 538.522 350.464C543.967 302.161 514.238 257.403 489.263 218.792C457.985 170.61 428.34 120.443 374.156 95.4085Z" fill="#7E42FF"/>
<path opacity="0.7" d="M374.156 95.4085C317.08 69.0547 248.316 67.7358 189.026 87.6161C129.216 107.69 67.3606 158.316 61.7099 225.556C57.5233 274.9 96.3159 305.694 103.104 351.699C107.23 379.637 94.2226 403.729 92.214 430.712C90.5079 453.702 98.7359 475.615 113.994 492.651C161.184 545.601 253.265 566.062 308.719 513.948C330.499 493.438 349.859 465.233 379.407 455.129C438.806 434.85 529.581 429.719 538.522 350.464C543.967 302.161 514.238 257.403 489.263 218.792C457.985 170.61 428.34 120.443 374.156 95.4085Z" fill="white"/>
<path d="M510.753 368.288H60.6331V372.389H510.753V368.288Z" fill="#263238"/>
<path d="M377.096 318.23C377.981 318.459 378.894 318.557 379.807 318.52C379.807 318.52 379.395 317.31 379.359 317.189C378.936 316.318 377.605 314.866 376.528 315.011C376.347 315.039 376.175 315.104 376.022 315.203C375.869 315.303 375.739 315.433 375.641 315.587C375.542 315.74 375.478 315.913 375.451 316.093C375.425 316.273 375.437 316.457 375.487 316.633C375.623 317 375.838 317.333 376.116 317.609C376.394 317.884 376.728 318.096 377.096 318.23Z" fill="#263238"/>
<path d="M402.204 311.66C401.115 311.539 399.784 313.027 399.433 313.91C399.433 313.995 398.997 315.253 399.022 315.253L398.356 316.028C397.933 316.548 397.461 317.141 396.989 317.819C396.471 318.549 395.994 319.309 395.561 320.093C395.079 320.968 394.674 321.883 394.351 322.828C394.351 322.501 394.351 321.618 394.351 321.545C394.218 320.577 393.407 318.774 392.342 318.581C392.163 318.554 391.98 318.564 391.805 318.611C391.63 318.659 391.467 318.742 391.326 318.856C391.185 318.969 391.069 319.111 390.986 319.272C390.902 319.433 390.853 319.61 390.842 319.791C390.858 320.183 390.959 320.567 391.139 320.916C391.319 321.265 391.573 321.571 391.883 321.811C392.629 322.304 393.445 322.683 394.303 322.937C393.999 323.908 393.761 324.898 393.589 325.901C393.48 326.482 393.395 327.111 393.322 327.668C393.322 327.39 393.322 327.148 393.322 327.111C393.189 326.143 392.379 324.352 391.314 324.159C391.134 324.13 390.951 324.139 390.775 324.185C390.599 324.232 390.435 324.315 390.294 324.429C390.152 324.543 390.036 324.686 389.953 324.848C389.871 325.01 389.823 325.187 389.813 325.369C389.83 325.761 389.932 326.145 390.112 326.494C390.291 326.842 390.545 327.148 390.854 327.39C391.602 327.875 392.417 328.246 393.274 328.491C393.274 328.709 393.214 328.938 393.189 329.168C393.056 330.269 392.935 331.358 392.778 332.423C392.717 332.81 392.657 333.173 392.584 333.549C392.595 333.387 392.595 333.226 392.584 333.065C392.463 332.097 391.653 330.294 390.576 330.1C390.397 330.071 390.214 330.08 390.039 330.126C389.864 330.173 389.7 330.256 389.56 330.371C389.419 330.485 389.304 330.628 389.223 330.79C389.141 330.952 389.095 331.129 389.087 331.31C389.103 331.702 389.205 332.086 389.385 332.435C389.564 332.784 389.818 333.09 390.128 333.331C390.833 333.808 391.609 334.171 392.427 334.408C392.354 334.783 392.27 335.158 392.173 335.521C392.076 335.884 392.052 336.005 391.979 336.247C391.907 336.489 391.822 336.731 391.737 336.973C391.58 337.42 391.411 337.892 391.241 338.328L390.89 339.199C390.951 338.824 391.048 338.098 391.048 337.989C391.042 337.138 390.813 336.303 390.382 335.569C390.388 335.472 390.388 335.376 390.382 335.279C390.36 335.1 390.3 334.927 390.207 334.773C390.113 334.618 389.988 334.485 389.839 334.382C389.691 334.279 389.522 334.209 389.345 334.176C389.167 334.143 388.985 334.148 388.809 334.19C387.756 334.468 387.079 336.319 387.03 337.287C387.03 337.348 387.03 337.977 387.091 338.364C387.091 338.147 386.994 337.917 386.934 337.687C386.825 337.215 386.704 336.755 386.571 336.259L386.353 335.533C386.28 335.291 386.183 335.049 386.099 334.795C385.893 334.226 385.651 333.657 385.397 333.089C386.246 332.914 387.062 332.608 387.817 332.181C388.147 331.965 388.426 331.68 388.635 331.346C388.844 331.012 388.977 330.636 389.027 330.245C389.033 330.064 389 329.883 388.931 329.715C388.862 329.547 388.759 329.395 388.628 329.27C388.497 329.144 388.34 329.048 388.169 328.986C387.998 328.925 387.817 328.901 387.635 328.914C386.546 329.035 385.603 330.766 385.409 331.721C385.409 331.782 385.324 332.484 385.3 332.859C385.143 332.52 384.998 332.181 384.828 331.842C384.344 330.874 383.824 329.894 383.304 328.926L382.832 328.031C383.716 327.846 384.568 327.532 385.361 327.099C385.692 326.882 385.972 326.595 386.181 326.259C386.39 325.922 386.523 325.544 386.571 325.151C386.575 324.969 386.54 324.789 386.47 324.622C386.4 324.454 386.295 324.303 386.163 324.179C386.03 324.054 385.873 323.959 385.702 323.9C385.53 323.84 385.348 323.817 385.167 323.832C384.09 323.953 383.146 325.684 382.953 326.639C382.953 326.712 382.844 327.716 382.832 327.97C382.493 327.317 382.154 326.652 381.852 325.998C381.434 325.104 381.078 324.182 380.787 323.239C381.676 323.059 382.533 322.744 383.328 322.308C383.657 322.088 383.935 321.801 384.144 321.465C384.353 321.129 384.487 320.752 384.538 320.36C384.542 320.178 384.508 319.997 384.437 319.83C384.367 319.662 384.262 319.512 384.13 319.387C383.998 319.263 383.841 319.168 383.669 319.108C383.497 319.048 383.315 319.025 383.134 319.041C382.057 319.162 381.114 320.892 380.908 321.848C380.908 321.92 380.799 323.058 380.799 323.203L380.738 323.034C380.468 322.084 380.286 321.112 380.194 320.13C380.133 319.585 380.097 319.065 380.085 318.557C380.969 318.48 381.834 318.263 382.65 317.915C382.997 317.734 383.3 317.48 383.54 317.171C383.78 316.862 383.951 316.505 384.042 316.125C384.065 315.947 384.052 315.767 384.003 315.595C383.954 315.423 383.87 315.262 383.757 315.124C383.644 314.985 383.503 314.872 383.344 314.79C383.185 314.708 383.01 314.66 382.832 314.648C381.743 314.648 380.617 316.27 380.315 317.189L380.109 318.157C380.109 317.927 380.109 317.698 380.109 317.48C380.109 316.645 380.109 315.895 380.206 315.229C380.206 314.842 380.279 314.503 380.315 314.176C381.058 313.701 381.724 313.113 382.287 312.434C382.513 312.113 382.666 311.746 382.735 311.359C382.804 310.972 382.788 310.575 382.687 310.195C382.627 310.024 382.531 309.867 382.406 309.736C382.281 309.604 382.129 309.501 381.961 309.432C381.793 309.363 381.612 309.331 381.43 309.338C381.249 309.344 381.071 309.389 380.908 309.469C379.94 309.966 379.698 311.889 379.843 312.882C379.843 312.966 380.23 314.237 380.242 314.237C380.242 314.552 380.158 314.878 380.109 315.241C380.109 315.907 379.976 316.669 379.964 317.492C379.931 318.388 379.951 319.285 380.025 320.178C380.1 321.175 380.266 322.163 380.521 323.13C380.351 322.852 379.843 322.114 379.795 322.066C379.153 321.328 377.496 320.275 376.491 320.71C376.326 320.784 376.178 320.892 376.057 321.027C375.936 321.162 375.846 321.321 375.791 321.494C375.736 321.666 375.718 321.848 375.739 322.028C375.759 322.208 375.818 322.382 375.911 322.538C376.14 322.856 376.437 323.121 376.78 323.314C377.122 323.506 377.503 323.621 377.895 323.651C378.798 323.647 379.695 323.508 380.557 323.239C380.835 324.217 381.179 325.175 381.585 326.107C381.827 326.652 382.082 327.196 382.348 327.728C382.19 327.499 382.045 327.305 382.021 327.281C381.38 326.543 379.722 325.49 378.718 325.913C378.552 325.988 378.404 326.097 378.283 326.234C378.162 326.37 378.071 326.53 378.017 326.703C377.962 326.877 377.944 327.06 377.965 327.241C377.986 327.422 378.044 327.596 378.137 327.753C378.367 328.071 378.664 328.335 379.007 328.528C379.349 328.72 379.73 328.835 380.121 328.866C381 328.866 381.873 328.732 382.711 328.466C382.808 328.672 382.904 328.878 383.013 329.084C383.509 330.076 384.005 331.056 384.465 332.036C384.623 332.375 384.768 332.726 384.925 333.065L384.647 332.665C384.005 331.939 382.336 330.887 381.331 331.31C381.167 331.386 381.02 331.496 380.9 331.633C380.78 331.769 380.691 331.929 380.637 332.103C380.584 332.276 380.567 332.459 380.589 332.639C380.61 332.82 380.67 332.993 380.763 333.149C380.993 333.467 381.29 333.732 381.632 333.924C381.975 334.116 382.355 334.232 382.747 334.262C383.596 334.262 384.44 334.135 385.252 333.887C385.397 334.238 385.542 334.601 385.663 334.952C385.784 335.303 385.833 335.424 385.893 335.666C385.954 335.908 386.026 336.162 386.099 336.404C386.208 336.864 386.329 337.348 386.425 337.808C386.522 338.268 386.559 338.425 386.619 338.727L386.111 337.663C385.591 336.84 384.102 335.545 383.037 335.823C382.863 335.871 382.701 335.956 382.562 336.071C382.423 336.187 382.31 336.331 382.231 336.493C382.152 336.656 382.108 336.834 382.103 337.014C382.099 337.195 382.132 337.375 382.203 337.542C382.377 337.892 382.627 338.2 382.934 338.443C383.242 338.686 383.599 338.857 383.981 338.945C384.867 339.082 385.769 339.082 386.655 338.945C386.764 339.453 386.861 339.937 386.934 340.409C387.224 342.031 387.406 343.386 387.514 344.342C387.514 344.511 387.514 344.668 387.514 344.802H384.223L385.433 368.215H391.023L392.233 344.802H389.172L389.245 344.668C389.668 343.797 390.249 342.539 390.878 341.038L391.483 339.502C392.36 339.698 393.261 339.767 394.157 339.707C394.539 339.648 394.904 339.51 395.229 339.302C395.554 339.093 395.832 338.819 396.045 338.497C396.124 338.335 396.168 338.158 396.174 337.978C396.18 337.797 396.149 337.618 396.082 337.45C396.014 337.283 395.913 337.131 395.784 337.005C395.654 336.879 395.5 336.782 395.331 336.719C394.29 336.368 392.717 337.541 392.137 338.328C392.137 338.328 391.786 338.921 391.592 339.26L391.846 338.594C392.004 338.146 392.161 337.699 392.318 337.203L392.536 336.489C392.613 336.238 392.678 335.984 392.73 335.727C392.875 335.134 392.984 334.517 393.093 333.924C393.901 334.246 394.754 334.442 395.621 334.504C396.014 334.504 396.402 334.417 396.758 334.25C397.113 334.083 397.428 333.839 397.678 333.536C397.783 333.388 397.854 333.219 397.889 333.04C397.923 332.862 397.92 332.678 397.879 332.502C397.837 332.325 397.76 332.158 397.65 332.014C397.541 331.869 397.402 331.749 397.243 331.661C396.275 331.165 394.532 332.084 393.843 332.774C393.843 332.774 393.359 333.367 393.129 333.67C393.129 333.307 393.238 332.931 393.286 332.556C393.419 331.479 393.528 330.378 393.637 329.289C393.637 328.951 393.698 328.612 393.734 328.273C394.571 328.614 395.457 328.823 396.36 328.89C396.751 328.89 397.138 328.804 397.493 328.639C397.849 328.474 398.164 328.233 398.417 327.934C398.521 327.785 398.592 327.616 398.627 327.438C398.661 327.26 398.658 327.076 398.617 326.899C398.576 326.722 398.498 326.556 398.388 326.411C398.279 326.266 398.14 326.146 397.981 326.059C397.013 325.55 395.271 326.482 394.581 327.16C394.581 327.16 393.891 328.007 393.746 328.212C393.819 327.474 393.903 326.748 394.024 326.022C394.163 325.048 394.373 324.086 394.653 323.143C395.493 323.479 396.378 323.687 397.279 323.76C397.671 323.759 398.058 323.673 398.413 323.508C398.768 323.343 399.083 323.103 399.336 322.804C399.44 322.655 399.512 322.486 399.546 322.308C399.581 322.129 399.577 321.946 399.536 321.769C399.495 321.592 399.417 321.426 399.308 321.281C399.198 321.136 399.06 321.016 398.901 320.928C397.933 320.42 396.19 321.352 395.5 322.029C395.5 322.09 394.774 322.937 394.653 323.106C394.657 323.05 394.657 322.993 394.653 322.937C394.955 321.995 395.335 321.08 395.791 320.202C396.045 319.718 396.311 319.271 396.577 318.835C397.358 319.255 398.199 319.553 399.07 319.718C399.461 319.759 399.856 319.714 400.228 319.586C400.6 319.459 400.94 319.252 401.224 318.98C401.342 318.843 401.43 318.682 401.482 318.509C401.535 318.336 401.551 318.153 401.529 317.974C401.507 317.794 401.449 317.621 401.356 317.465C401.264 317.309 401.141 317.174 400.994 317.068C400.086 316.475 398.259 317.201 397.497 317.806C397.497 317.806 397.061 318.218 396.795 318.496L397.158 317.927C397.618 317.238 398.078 316.633 398.489 316.1L399.155 315.29C400.035 315.305 400.913 315.182 401.756 314.927C402.122 314.783 402.452 314.561 402.724 314.277C402.995 313.993 403.202 313.653 403.329 313.281C403.377 313.1 403.386 312.91 403.353 312.725C403.321 312.54 403.249 312.364 403.142 312.21C403.035 312.056 402.895 311.927 402.733 311.832C402.571 311.737 402.391 311.678 402.204 311.66ZM390.189 340.821C389.523 342.321 388.979 343.555 388.495 344.451C388.398 344.62 388.325 344.777 388.253 344.91H388.18C388.18 344.757 388.156 344.576 388.107 344.366C387.974 343.398 387.769 342.031 387.442 340.397C387.345 339.889 387.224 339.332 387.091 338.776C387.604 338.571 388.105 338.336 388.591 338.074C389.247 338.636 389.976 339.108 390.757 339.478L390.189 340.821Z" fill="#263238"/>
<path d="M396.48 318.605C396.48 318.605 396.831 317.322 396.843 317.238C396.977 316.282 396.674 314.334 395.633 313.862C395.469 313.787 395.29 313.747 395.109 313.746C394.927 313.745 394.748 313.782 394.582 313.855C394.416 313.928 394.268 314.036 394.147 314.17C394.026 314.305 393.934 314.464 393.879 314.636C393.79 315.019 393.786 315.417 393.867 315.802C393.949 316.187 394.114 316.549 394.351 316.863C394.974 317.542 395.691 318.129 396.48 318.605Z" fill="#263238"/>
<path d="M117.37 320.65C118.21 320.872 119.079 320.97 119.947 320.94C119.947 320.94 119.548 319.73 119.512 319.67C119.112 318.835 117.854 317.456 116.825 317.601C116.654 317.625 116.489 317.686 116.343 317.78C116.197 317.873 116.072 317.997 115.978 318.143C115.884 318.288 115.823 318.453 115.798 318.624C115.773 318.796 115.785 318.971 115.833 319.138C115.966 319.485 116.172 319.8 116.438 320.06C116.703 320.321 117.021 320.522 117.37 320.65Z" fill="#263238"/>
<path d="M141.267 314.443C140.239 314.334 139.005 315.737 138.63 316.584C138.63 316.669 138.218 317.867 138.242 317.867C138.037 318.085 137.831 318.327 137.613 318.593C137.214 319.089 136.754 319.658 136.306 320.299C135.859 320.94 135.387 321.666 134.951 322.453C134.471 323.286 134.066 324.161 133.741 325.066C133.741 324.764 133.741 323.917 133.741 323.856C133.62 322.937 132.846 321.231 131.829 321.049C131.654 321.019 131.474 321.028 131.303 321.075C131.132 321.122 130.973 321.206 130.837 321.322C130.702 321.437 130.594 321.581 130.521 321.743C130.448 321.905 130.411 322.081 130.414 322.259C130.425 322.632 130.519 322.998 130.688 323.331C130.858 323.664 131.099 323.955 131.394 324.183C132.11 324.654 132.893 325.013 133.717 325.248C133.433 326.173 133.207 327.114 133.039 328.067C132.943 328.624 132.858 329.193 132.785 329.749C132.785 329.483 132.785 329.253 132.785 329.217C132.664 328.297 131.89 326.591 130.874 326.41C130.703 326.38 130.529 326.387 130.362 326.431C130.194 326.475 130.038 326.554 129.904 326.662C129.77 326.771 129.661 326.908 129.584 327.062C129.507 327.217 129.464 327.386 129.458 327.559C129.472 327.932 129.567 328.296 129.737 328.629C129.906 328.961 130.145 329.252 130.438 329.483C131.132 329.949 131.896 330.3 132.701 330.524C132.701 330.741 132.701 330.959 132.616 331.177C132.495 332.218 132.374 333.258 132.229 334.275L132.047 335.339C132.047 335.097 132.047 334.904 132.047 334.88C131.926 333.96 131.152 332.254 130.135 332.06C129.96 332.03 129.78 332.039 129.609 332.086C129.438 332.133 129.279 332.217 129.143 332.333C129.008 332.448 128.9 332.592 128.827 332.754C128.754 332.916 128.717 333.092 128.72 333.27C128.733 333.641 128.827 334.005 128.997 334.335C129.166 334.666 129.406 334.955 129.7 335.182C130.374 335.633 131.112 335.98 131.89 336.211C131.817 336.561 131.745 336.924 131.648 337.263C131.596 337.497 131.532 337.727 131.454 337.953L131.237 338.643C131.079 339.066 130.922 339.514 130.765 339.925C130.607 340.337 130.535 340.494 130.426 340.76C130.486 340.409 130.583 339.707 130.583 339.647C130.57 338.834 130.35 338.039 129.942 337.336C129.948 337.243 129.948 337.15 129.942 337.058C129.923 336.884 129.867 336.717 129.778 336.567C129.689 336.417 129.568 336.289 129.425 336.19C129.281 336.091 129.118 336.024 128.946 335.995C128.774 335.965 128.598 335.972 128.429 336.017C127.437 336.283 126.796 338.05 126.747 338.969C126.747 339.03 126.747 339.623 126.747 339.998L126.602 339.344C126.493 338.897 126.372 338.461 126.251 337.989C126.179 337.759 126.106 337.529 126.046 337.3C125.985 337.07 125.876 336.828 125.804 336.598C125.598 336.053 125.368 335.509 125.138 334.976C125.948 334.804 126.727 334.51 127.449 334.105C127.757 333.897 128.017 333.625 128.211 333.308C128.405 332.99 128.529 332.635 128.575 332.266C128.575 332.096 128.541 331.928 128.472 331.773C128.404 331.618 128.304 331.479 128.178 331.365C128.053 331.25 127.905 331.164 127.744 331.111C127.583 331.058 127.412 331.039 127.244 331.056C126.215 331.165 125.32 332.81 125.126 333.718C125.126 333.778 125.053 334.444 125.029 334.807C124.884 334.492 124.739 334.166 124.582 333.839C124.122 332.907 123.626 331.988 123.13 331.056L122.682 330.209C123.528 330.037 124.344 329.739 125.102 329.326C125.411 329.116 125.672 328.842 125.866 328.523C126.061 328.203 126.184 327.846 126.227 327.474C126.228 327.305 126.193 327.137 126.125 326.982C126.057 326.826 125.957 326.687 125.831 326.573C125.706 326.459 125.557 326.372 125.396 326.319C125.235 326.266 125.065 326.247 124.896 326.264C123.868 326.385 122.972 328.031 122.779 328.938C122.779 328.999 122.682 329.967 122.67 330.209C122.343 329.58 122.028 328.999 121.738 328.321C121.347 327.471 121.008 326.599 120.722 325.708C121.569 325.533 122.385 325.231 123.142 324.812C123.451 324.606 123.713 324.334 123.907 324.017C124.101 323.699 124.224 323.343 124.267 322.973C124.268 322.804 124.233 322.636 124.165 322.48C124.096 322.325 123.996 322.186 123.871 322.072C123.745 321.958 123.597 321.871 123.436 321.818C123.275 321.765 123.105 321.746 122.936 321.763C121.907 321.872 121.012 323.518 120.831 324.425C120.831 324.498 120.722 325.526 120.71 325.72V325.563C120.453 324.661 120.279 323.737 120.189 322.804C120.189 322.283 120.105 321.787 120.08 321.303C120.913 321.228 121.73 321.024 122.5 320.698C122.832 320.526 123.122 320.282 123.35 319.985C123.578 319.688 123.738 319.345 123.819 318.98C123.846 318.807 123.834 318.63 123.785 318.461C123.736 318.293 123.651 318.137 123.536 318.005C123.421 317.872 123.278 317.767 123.118 317.695C122.958 317.623 122.785 317.587 122.609 317.589C121.569 317.589 120.492 319.125 120.189 320.009C120.189 320.009 120.068 320.553 119.996 320.928C119.996 320.71 119.996 320.481 119.996 320.275C119.996 319.488 119.996 318.774 120.092 318.133C120.092 317.77 120.165 317.443 120.201 317.141C120.905 316.689 121.534 316.13 122.065 315.483C122.283 315.179 122.431 314.83 122.498 314.462C122.565 314.094 122.549 313.715 122.452 313.354C122.396 313.191 122.306 313.042 122.188 312.917C122.07 312.792 121.926 312.694 121.767 312.628C121.608 312.563 121.437 312.532 121.265 312.539C121.093 312.545 120.924 312.588 120.77 312.664C119.838 313.136 119.56 314.999 119.754 315.907C119.754 315.991 120.117 317.202 120.129 317.189C120.129 317.48 120.044 317.794 120.008 318.145C120.008 318.774 119.875 319.5 119.863 320.287C119.809 321.133 119.809 321.982 119.863 322.828C119.929 323.777 120.087 324.717 120.334 325.635L119.645 324.631C119.04 323.929 117.455 322.925 116.499 323.336C116.34 323.406 116.199 323.508 116.083 323.637C115.968 323.766 115.881 323.918 115.83 324.083C115.778 324.249 115.763 324.423 115.784 324.594C115.805 324.766 115.864 324.931 115.954 325.079C116.171 325.38 116.452 325.63 116.776 325.812C117.1 325.994 117.459 326.103 117.83 326.131C118.688 326.133 119.541 326.002 120.359 325.744C120.63 326.672 120.962 327.581 121.351 328.467C121.569 328.987 121.811 329.507 122.065 330.015L121.762 329.58C121.157 328.878 119.572 327.886 118.616 328.285C118.458 328.355 118.316 328.457 118.201 328.586C118.085 328.715 117.999 328.867 117.947 329.032C117.896 329.197 117.88 329.372 117.902 329.543C117.923 329.715 117.981 329.88 118.072 330.027C118.288 330.33 118.568 330.583 118.892 330.767C119.216 330.95 119.576 331.062 119.947 331.092C120.768 331.085 121.583 330.959 122.367 330.717L122.658 331.298C123.13 332.242 123.614 333.173 124.049 334.105L124.485 335.085L124.219 334.71C123.614 334.008 122.028 333.004 121.073 333.415C120.914 333.485 120.772 333.588 120.657 333.717C120.542 333.845 120.455 333.998 120.404 334.163C120.352 334.328 120.336 334.502 120.358 334.674C120.379 334.845 120.437 335.011 120.528 335.158C120.745 335.461 121.025 335.713 121.348 335.897C121.672 336.081 122.032 336.192 122.404 336.223C123.224 336.229 124.041 336.106 124.824 335.86C124.957 336.198 125.09 336.537 125.211 336.876C125.332 337.215 125.368 337.324 125.429 337.566C125.489 337.808 125.562 338.026 125.622 338.255C125.731 338.691 125.84 339.151 125.937 339.586L126.118 340.47L125.634 339.453C125.138 338.679 123.722 337.445 122.718 337.699C122.549 337.742 122.392 337.822 122.257 337.932C122.122 338.042 122.012 338.179 121.935 338.336C121.858 338.492 121.816 338.663 121.811 338.837C121.806 339.011 121.839 339.184 121.907 339.344C122.078 339.677 122.319 339.968 122.614 340.198C122.909 340.428 123.25 340.591 123.614 340.675C124.456 340.806 125.313 340.806 126.155 340.675C126.251 341.147 126.348 341.619 126.421 342.067C126.687 343.604 126.856 344.898 126.965 345.806C126.965 345.975 126.965 346.108 126.965 346.254H123.843L124.981 368.505H130.305L131.442 346.254H128.538V346.12C128.938 345.286 129.494 344.088 130.087 342.624C130.281 342.164 130.474 341.668 130.668 341.147C131.499 341.349 132.356 341.419 133.209 341.353C133.578 341.295 133.929 341.156 134.239 340.947C134.548 340.738 134.808 340.463 135 340.143C135.078 339.989 135.123 339.82 135.131 339.648C135.139 339.475 135.11 339.302 135.046 339.142C134.982 338.981 134.884 338.837 134.759 338.717C134.634 338.597 134.485 338.506 134.322 338.449C133.342 338.122 131.902 339.236 131.285 339.986L130.777 340.869C130.849 340.663 130.934 340.458 131.007 340.24C131.164 339.816 131.309 339.381 131.466 338.921C131.539 338.691 131.6 338.461 131.672 338.231C131.745 338.001 131.793 337.759 131.854 337.517C131.987 336.949 132.096 336.38 132.192 335.799C132.967 336.102 133.783 336.285 134.612 336.344C134.985 336.342 135.353 336.26 135.691 336.103C136.029 335.946 136.33 335.719 136.573 335.436C136.676 335.296 136.748 335.135 136.784 334.964C136.82 334.793 136.818 334.616 136.779 334.446C136.74 334.276 136.664 334.116 136.558 333.978C136.451 333.84 136.316 333.726 136.161 333.645C135.242 333.173 133.584 334.057 132.931 334.71C132.931 334.71 132.471 335.267 132.241 335.557C132.241 335.206 132.35 334.855 132.398 334.504C132.519 333.476 132.628 332.423 132.725 331.383C132.725 331.068 132.725 330.753 132.822 330.427C133.618 330.745 134.459 330.941 135.314 331.008C135.687 331.006 136.055 330.923 136.393 330.767C136.731 330.61 137.032 330.383 137.274 330.1C137.376 329.959 137.445 329.798 137.479 329.628C137.512 329.458 137.509 329.283 137.469 329.114C137.428 328.945 137.353 328.787 137.246 328.651C137.139 328.514 137.005 328.402 136.851 328.321C135.931 327.837 134.286 328.721 133.62 329.374C133.62 329.374 132.967 330.173 132.834 330.366C132.906 329.664 132.979 328.975 133.088 328.285C133.23 327.361 133.432 326.448 133.693 325.55C134.493 325.87 135.338 326.066 136.198 326.131C136.568 326.129 136.934 326.047 137.271 325.89C137.607 325.734 137.905 325.506 138.146 325.224C138.249 325.083 138.321 324.922 138.357 324.751C138.393 324.58 138.391 324.404 138.352 324.234C138.313 324.064 138.237 323.904 138.131 323.766C138.024 323.628 137.889 323.514 137.734 323.433C136.815 322.961 135.157 323.844 134.504 324.498C134.504 324.498 133.802 325.357 133.693 325.514C133.698 325.458 133.698 325.401 133.693 325.345C133.975 324.45 134.339 323.583 134.782 322.755C135.012 322.296 135.266 321.86 135.52 321.449C136.275 321.859 137.093 322.141 137.94 322.283C138.311 322.327 138.686 322.288 139.04 322.169C139.394 322.05 139.716 321.853 139.985 321.594C140.101 321.465 140.189 321.314 140.241 321.148C140.294 320.983 140.311 320.809 140.29 320.637C140.269 320.464 140.212 320.299 140.122 320.151C140.032 320.003 139.911 319.876 139.767 319.779C138.908 319.198 137.166 319.888 136.44 320.468L135.774 321.134C135.895 320.952 136.004 320.759 136.125 320.589C136.561 319.936 136.996 319.379 137.335 318.859C137.565 318.569 137.771 318.315 137.976 318.085C138.796 318.088 139.611 317.97 140.396 317.734C140.743 317.596 141.057 317.385 141.316 317.116C141.574 316.847 141.773 316.525 141.897 316.173C141.983 316.021 142.035 315.852 142.05 315.677C142.064 315.503 142.041 315.327 141.981 315.163C141.921 314.998 141.827 314.849 141.703 314.724C141.58 314.6 141.431 314.504 141.267 314.443ZM129.845 342.164C129.216 343.604 128.635 344.777 128.224 345.588C128.151 345.757 128.066 345.903 128.006 346.036H127.933C127.933 345.866 127.933 345.697 127.861 345.503C127.74 344.584 127.534 343.289 127.231 341.74C127.135 341.244 127.026 340.724 126.905 340.191C127.389 339.998 127.862 339.775 128.32 339.526C128.946 340.062 129.643 340.509 130.39 340.857C130.208 341.317 130.014 341.752 129.845 342.164Z" fill="#263238"/>
<path d="M135.823 321.037C135.823 321.037 136.161 319.827 136.173 319.755C136.294 318.835 136.004 316.984 135.072 316.536C134.916 316.463 134.745 316.424 134.572 316.422C134.399 316.42 134.228 316.455 134.069 316.525C133.911 316.595 133.77 316.698 133.655 316.827C133.54 316.956 133.454 317.109 133.403 317.274C133.317 317.637 133.311 318.015 133.386 318.381C133.462 318.747 133.616 319.092 133.838 319.392C134.417 320.033 135.085 320.587 135.823 321.037Z" fill="#263238"/>
<path d="M405.882 370.708V143.421" stroke="#263238" stroke-linecap="round" stroke-linejoin="round"/>
<path d="M202.602 370.708V144.837" stroke="#263238" stroke-linecap="round" stroke-linejoin="round"/>
<path d="M72.8298 259.134H494.503" stroke="#263238" stroke-linecap="round" stroke-linejoin="round"/>
<path d="M261.941 217.389L256.689 220.619" stroke="#263238" stroke-width="0.5" stroke-linecap="round" stroke-linejoin="round"/>
<path d="M350.586 162.757L269.007 213.033" stroke="#263238" stroke-width="0.5" stroke-linecap="round" stroke-linejoin="round"/>
<path d="M361.354 166.157L295.99 206.426" stroke="#263238" stroke-width="0.5" stroke-linecap="round" stroke-linejoin="round"/>
<path d="M389.898 148.564L370.151 160.724" stroke="#263238" stroke-width="0.5" stroke-linecap="round" stroke-linejoin="round"/>
<path d="M201.392 227.48C219.436 227.48 234.062 212.853 234.062 194.81C234.062 176.767 219.436 162.14 201.392 162.14C183.349 162.14 168.722 176.767 168.722 194.81C168.722 212.853 183.349 227.48 201.392 227.48Z" fill="#263238"/>
<path d="M201.392 223.148C217.043 223.148 229.731 210.461 229.731 194.81C229.731 179.159 217.043 166.472 201.392 166.472C185.742 166.472 173.054 179.159 173.054 194.81C173.054 210.461 185.742 223.148 201.392 223.148Z" fill="white"/>
<path d="M183.012 200.025L201.392 194.81V169.097" stroke="#263238" stroke-width="2" stroke-miterlimit="10"/>
<path d="M495.846 460.708H503.892" stroke="#263238" stroke-linecap="round" stroke-linejoin="round"/>
<path d="M56.1924 460.708H484.932" stroke="#263238" stroke-linecap="round" stroke-linejoin="round"/>
<path d="M149.096 449.43H109.166C109.166 449.43 109.166 460.151 114.805 474.175C114.805 476.861 121.254 479.015 129.216 479.015C137.178 479.015 143.615 476.849 143.615 474.175C143.632 474.042 143.632 473.908 143.615 473.776C149.036 459.945 149.096 449.43 149.096 449.43Z" fill="white" stroke="#263238" stroke-linecap="round" stroke-linejoin="round"/>
<path d="M129.264 455.25C140.337 455.25 149.314 452.645 149.314 449.43C149.314 446.216 140.337 443.61 129.264 443.61C118.191 443.61 109.215 446.216 109.215 449.43C109.215 452.645 118.191 455.25 129.264 455.25Z" fill="white" stroke="#263238" stroke-linecap="round" stroke-linejoin="round"/>
<path d="M129.264 454.295C139.202 454.295 147.257 452.117 147.257 449.43C147.257 446.744 139.202 444.566 129.264 444.566C119.327 444.566 111.272 446.744 111.272 449.43C111.272 452.117 119.327 454.295 129.264 454.295Z" fill="white" stroke="#263238" stroke-linecap="round" stroke-linejoin="round"/>
<path d="M112.966 451.487C115.845 453.145 122.053 454.282 129.264 454.282C136.476 454.282 142.683 453.145 145.551 451.487C142.683 449.842 136.464 448.692 129.264 448.692C122.065 448.692 115.845 449.842 112.966 451.487Z" fill="#263238" stroke="#263238" stroke-linecap="round" stroke-linejoin="round"/>
<path d="M120.879 451.947C120.879 451.947 115.664 438.928 117.189 435.455C118.713 431.982 123.698 432.418 125.441 435.89C127.183 439.363 128.042 452.383 128.042 452.383C128.042 452.383 122.827 454.125 120.879 451.947Z" fill="#7E42FF" stroke="#263238" stroke-linecap="round" stroke-linejoin="round"/>
<path d="M125.441 453.254C125.441 453.254 121.315 430.264 122.392 425.908C123.469 421.552 128.914 420.039 132.81 423.294C136.706 426.549 135.23 443.054 135.23 445.437C135.23 447.821 135.012 452.818 135.012 452.818C131.918 453.818 128.613 453.969 125.441 453.254Z" fill="#7E42FF" stroke="#263238" stroke-linecap="round" stroke-linejoin="round"/>
<path d="M133.899 452.818C133.899 452.818 130.68 443.913 132.604 440.44C134.528 436.967 138.46 438.274 138.46 441.093C138.46 443.913 138.678 450.652 138.243 452.165C137.807 453.677 135.423 454.125 133.899 452.818Z" fill="#7E42FF" stroke="#263238" stroke-linecap="round" stroke-linejoin="round"/>
<path d="M129.131 452.601C123.698 432.031 128.26 421.782 128.26 421.782C128.26 421.782 134.77 433.071 131.297 452.601" stroke="#263238" stroke-linecap="round" stroke-linejoin="round"/>
<path d="M120.226 435.019C120.226 435.019 115.228 435.237 123.481 452.383" stroke="#263238" stroke-linecap="round" stroke-linejoin="round"/>
<path d="M292.046 374.773C292.046 374.773 214.085 372.123 206.136 389.838C198.186 407.552 206.136 460.708 206.136 460.708H327.499C327.499 460.708 344.85 394.859 335.17 385.99C325.49 377.121 292.046 374.773 292.046 374.773Z" fill="#263238" stroke="#263238" stroke-miterlimit="10"/>
<path d="M301.532 247.13C301.532 247.13 297.297 245.17 294.829 247.663C292.36 250.155 290.315 251.45 288.404 251.559C286.492 251.668 281.882 250.288 280.563 253.81C279.244 257.331 276.751 257.064 275.118 257.512C273.484 257.96 268.257 259.545 268.039 261.65C267.822 263.756 268.172 266.49 266.224 266.938C264.276 267.386 259.545 267.168 258.892 270.447C258.622 271.855 258.018 273.177 257.132 274.303C256.246 275.43 255.102 276.327 253.798 276.921C251.825 277.634 247.748 276.921 247.409 280.551C247.07 284.181 246.985 287.811 246.985 287.811L244.735 291.223C244.735 291.223 241.032 293.28 241.928 297.019C242.823 300.758 246.368 303.25 242.23 306.481C238.092 309.712 235.406 311.321 237.317 314.189C239.229 317.056 242.412 317.141 241.758 320.42C241.105 323.699 236.567 327.801 241.468 329.507C246.368 331.213 247.711 330.451 247.094 333.428C246.477 336.404 249.962 339.478 251.535 339.659C253.108 339.841 252.406 340.361 253.616 344.124C254.021 345.408 254.788 346.547 255.825 347.406C256.861 348.264 258.124 348.805 259.46 348.964C260.67 349.097 262.34 348.649 264.3 350.985C266.261 353.32 285.548 369.57 306.65 371.41C319.653 372.756 332.78 370.631 344.693 365.251C348.988 363.557 353.429 360.411 353.393 357.628C353.356 354.845 359.068 354.857 361.197 352.642C363.327 350.428 363.726 349.557 363.726 346.52C363.726 343.483 364.017 340.47 365.178 338.449C366.34 336.428 367.707 335.364 367.392 332.29C367.078 329.217 369.377 325.2 370.817 323.518C372.257 321.836 373.757 319.561 371.047 315.048C368.336 310.534 367.175 309.482 368.179 305.936C369.183 302.391 370.793 298.906 368.554 295.942C366.715 293.525 365.891 290.487 366.255 287.472C366.497 285.052 368.252 283.418 364.67 281.228C361.088 279.038 361.113 275.698 360.629 274.125C360.145 272.552 361.004 270.495 356.793 268.257C353.858 266.73 351.625 264.129 350.561 260.997C349.811 259.097 347.633 255.528 343.931 254.548C340.228 253.568 338.316 253.664 335.799 250.373C333.283 247.082 330.959 244.408 327.559 244.057C324.159 243.706 324.389 244.057 319.283 244.432C316.402 244.781 313.481 244.363 310.813 243.222C309.591 242.774 305.816 239.35 301.532 247.13Z" fill="#263238" stroke="#263238" stroke-linecap="round" stroke-linejoin="round"/>
<path d="M309.131 254.33C309.131 254.33 299.245 259.46 298.144 262.8C297.043 266.139 291.55 262.8 287.52 267.192C283.491 271.584 284.955 276.352 280.551 278.191C276.146 280.03 266.999 280.018 266.636 285.887C266.273 291.755 265.898 295.409 263.006 298.338C260.114 301.266 256.411 301.968 258.976 306.033C261.542 310.099 263.006 312.265 259.339 317.032C255.673 321.799 249.442 323.251 254.947 328.382C260.453 333.512 264.107 333.887 261.905 337.542C259.702 341.196 265.196 343.047 266.672 343.773M246.477 307.509C249.042 305.682 245.376 298.713 247.578 294.32C249.78 289.928 250.143 290.291 251.97 285.85C253.798 281.41 253.072 280.345 256.738 279.619C260.404 278.893 262.969 275.59 266.999 270.822C271.028 266.055 273.956 269.358 277.259 264.228C280.563 259.097 278.724 257.996 283.116 257.27C287.508 256.544 293.014 255.431 295.942 253.229C298.487 251.339 301.569 250.313 304.739 250.301C306.233 250.312 307.719 250.067 309.131 249.575C311.14 248.417 313.408 247.785 315.725 247.735C319.355 247.735 319.355 249.199 325.623 247.735L246.477 307.509Z" stroke="white" stroke-miterlimit="10"/>
<path d="M272.129 307.884C272.129 307.884 280.188 307.884 282.753 305.682C285.318 303.48 287.883 300.189 291.223 302.052C294.562 303.916 297.817 303.153 299.693 298.749C301.568 294.345 296.764 292.53 303.323 292.53C309.881 292.53 310.28 291.065 313.208 285.935C316.137 280.805 312.482 280.805 321.279 280.43C330.076 280.054 330.802 274.21 334.105 274.573C337.408 274.936 338.86 275.674 335.569 282.632C332.278 289.589 329.338 290.327 333.73 293.994C338.122 297.66 342.527 296.559 339.961 304.98C337.396 313.402 339.599 314.14 340.7 317.443C341.801 320.747 343.265 321.836 338.497 326.24C333.73 330.645 332.266 330.269 333.367 335.4C334.468 340.53 335.569 342.66 331.54 344.56C327.511 346.459 324.207 348.952 326.034 350.791C327.862 352.63 328.6 352.981 327.511 354.421" stroke="white" stroke-miterlimit="10"/>
<path d="M286.093 342.732C286.093 342.732 264.313 345.757 247.978 348.177C231.643 350.597 220.148 353.32 219.845 358.765C219.543 364.21 195.948 421.685 193.225 423.5C191.443 424.678 189.947 426.241 188.848 428.073C187.748 429.905 187.073 431.96 186.873 434.087C186.352 437.836 185.335 441.498 183.848 444.977C183.848 444.977 194.435 443.767 198.973 447.397C203.51 451.027 206.233 453.145 206.233 453.145C206.233 453.145 218.938 444.977 220.753 440.742C222.568 436.507 216.82 427.432 218.635 424.407C220.45 421.382 227.71 411.4 227.71 411.4C227.71 411.4 237.39 441.65 238.6 448.002C239.257 452.252 238.947 456.595 237.693 460.707H322.695V435.6C322.695 431.062 326.023 416.845 326.023 416.845C326.023 416.845 334.19 440.44 336.308 446.792C337.762 451.364 338.974 456.008 339.938 460.707H368.978C368.978 460.707 358.995 430.76 355.365 421.382C351.735 412.005 347.5 374.495 345.685 369.957C343.87 365.42 318.158 351.202 305.453 348.177C298.91 346.696 292.448 344.879 286.093 342.732Z" fill="#7E42FF"/>
<path opacity="0.3" d="M198.973 447.397C203.51 451.028 206.233 453.145 206.233 453.145C206.233 453.145 218.938 444.978 220.753 440.743C222.568 436.507 216.82 427.433 218.635 424.408C220.45 421.382 227.71 411.4 227.71 411.4L227.916 412.041L234.063 404.781C234.063 404.781 236.483 405.386 240.113 418.091C243.743 430.796 259.473 438.661 255.843 445.316C253.495 449.624 251.402 456.448 250.216 460.744H322.695V435.6C322.695 431.062 326.023 416.845 326.023 416.845C326.023 416.845 334.19 440.44 336.308 446.793C337.762 451.364 338.974 456.008 339.938 460.708H368.978C368.978 460.708 358.995 430.76 355.365 421.382C352.28 413.421 348.759 385.155 346.653 374.047C345.556 372.662 344.319 371.393 342.963 370.26C334.493 363.605 313.923 356.345 309.083 355.74C304.243 355.135 292.143 347.27 278.833 352.715C278.833 352.715 269.758 360.58 263.103 362.395C256.448 364.21 243.138 350.9 241.928 357.555C241.224 361.964 241.224 366.456 241.928 370.865C241.928 370.865 234.668 353.925 235.273 360.58C235.878 367.235 235.878 373.285 235.878 373.285C235.878 373.285 229.223 358.765 229.223 364.815C229.223 370.865 232.248 378.73 231.643 383.57C231.038 388.41 214.098 418.66 212.283 421.685C210.468 424.71 211.073 430.276 208.955 434.45C207.603 436.991 205.33 438.917 202.603 439.835C202.603 439.835 204.418 431.97 197.763 432.575C191.108 433.18 183.848 444.978 183.848 444.978C183.848 444.978 194.435 443.768 198.973 447.397Z" fill="black"/>
<path d="M286.093 342.732C286.093 342.732 264.313 345.757 247.978 348.177C231.643 350.597 220.148 353.32 219.845 358.765C219.543 364.21 195.948 421.685 193.225 423.5C191.443 424.678 189.947 426.241 188.848 428.073C187.748 429.905 187.073 431.96 186.873 434.087C186.352 437.836 185.335 441.498 183.848 444.977C183.848 444.977 194.435 443.767 198.973 447.397C203.51 451.027 206.233 453.145 206.233 453.145C206.233 453.145 218.938 444.977 220.753 440.742C222.568 436.507 216.82 427.432 218.635 424.407C220.45 421.382 227.71 411.4 227.71 411.4C227.71 411.4 237.39 441.65 238.6 448.002C239.257 452.252 238.947 456.595 237.693 460.707H322.695V435.6C322.695 431.062 326.023 416.845 326.023 416.845C326.023 416.845 334.19 440.44 336.308 446.792C337.762 451.364 338.974 456.008 339.938 460.707H368.978C368.978 460.707 358.995 430.76 355.365 421.382C351.735 412.005 347.5 374.495 345.685 369.957C343.87 365.42 318.158 351.202 305.453 348.177C298.91 346.696 292.448 344.879 286.093 342.732V342.732Z" stroke="#263238" stroke-linecap="round" stroke-linejoin="round"/>
<path d="M292.142 394.157C292.142 394.157 294.804 421.177 293.679 432.393C292.554 443.61 288.633 452.032 290.315 459.885" stroke="#263238" stroke-linecap="round" stroke-linejoin="round"/>
<path d="M328.442 398.09L333.282 387.805" stroke="#263238" stroke-linecap="round" stroke-linejoin="round"/>
<path d="M283.37 340.312C283.37 340.312 280.043 342.43 279.438 344.547C278.833 346.665 273.993 352.412 271.875 360.882C269.758 369.352 270.968 384.78 272.48 381.15C273.993 377.52 277.925 369.655 279.438 367.84C280.95 366.025 281.253 368.445 282.463 373.587C283.673 378.73 292.143 394.157 292.143 394.157C292.143 394.157 298.495 379.94 302.125 377.822C305.755 375.705 307.268 368.747 307.268 368.747C307.268 368.747 310.897 386.897 313.015 386.897C315.132 386.897 316.04 372.982 315.132 364.512C314.225 356.042 310.293 345.757 307.873 342.43C305.453 339.102 295.168 327.91 283.37 340.312Z" fill="white" stroke="#263238" stroke-linecap="round" stroke-linejoin="round"/>
<path d="M283.672 338.497C283.672 338.497 282.462 362.092 284.277 372.377C286.092 382.662 290.63 397.787 292.142 394.157C293.655 390.527 303.335 372.68 304.847 364.512C306.084 358.696 307.909 353.02 310.292 347.572C310.292 347.572 292.142 349.69 283.672 338.497Z" fill="white" stroke="#263238" stroke-linecap="round" stroke-linejoin="round"/>
<path d="M327.692 285.076C327.692 285.076 322.417 286.588 321.098 289.529C319.779 292.469 318.678 292.699 315.338 295.772C311.999 298.846 310.97 298.398 308.332 300.866C305.694 303.335 303.662 303.117 300.552 303.48C297.442 303.843 294.732 303.577 293.292 304.448C291.902 305.198 290.463 305.853 288.984 306.408C288.984 306.408 287.06 305.198 285.572 309.808C284.084 314.418 282.293 325.187 283.394 331.104C284.495 337.021 288.875 351.13 295.7 354.566C302.524 358.003 319.004 347.028 323.239 342.345C327.474 337.663 336.211 315.653 336.549 311.938C336.888 308.223 331.153 301.145 330.076 298.301C328.999 295.458 330.524 293.909 328.406 291.295C326.289 288.682 327.692 285.076 327.692 285.076Z" fill="white" stroke="#263238" stroke-linecap="round" stroke-linejoin="round"/>
<path d="M310.716 331.855C310.716 331.855 309.748 333.536 306.396 333.198C303.045 332.859 301.726 330.33 302.113 328.358" stroke="#263238" stroke-linecap="round" stroke-linejoin="round"/>
<path d="M297.733 334.311C300.878 337.032 304.877 338.564 309.034 338.643" stroke="#263238" stroke-linecap="round" stroke-linejoin="round"/>
<path d="M304.133 314.467L302.851 317.323C302.851 317.323 298.471 319.259 294.49 313.487" stroke="#263238" stroke-linecap="round" stroke-linejoin="round"/>
<path d="M324.28 322.284L323.215 324.958C323.215 324.958 317.722 326.168 315.955 321.642" stroke="#263238" stroke-linecap="round" stroke-linejoin="round"/>
<path d="M318.23 312.918C318.23 312.918 327.329 309.47 329.858 317.891" stroke="#263238" stroke-linecap="round" stroke-linejoin="round"/>
<path d="M308.236 309.324C308.236 309.324 305.029 301.834 296.136 305.101" stroke="#263238" stroke-linecap="round" stroke-linejoin="round"/>
<path d="M302.851 317.322C302.851 317.322 301.193 317.952 297.733 316.802C296.716 316.461 295.785 315.905 295.002 315.172C294.219 314.44 293.603 313.547 293.195 312.555C293.195 312.555 293.171 320.517 302.851 317.322Z" fill="#263238"/>
<path d="M324.28 325.49C324.28 325.49 322.623 326.119 319.162 324.97C318.145 324.629 317.214 324.073 316.431 323.34C315.648 322.607 315.032 321.715 314.625 320.723C314.625 320.723 314.6 328.672 324.28 325.49Z" fill="#263238"/>
<path d="M227.71 411.4C227.71 411.4 237.995 394.762 243.44 383.267L227.71 411.4Z" fill="white"/>
<path d="M227.71 411.4C227.71 411.4 237.995 394.762 243.44 383.267" stroke="#263238" stroke-linecap="round" stroke-linejoin="round"/>
<path d="M235.575 399.3C240.229 396.262 244.154 392.234 247.07 387.502" stroke="#263238" stroke-linecap="round" stroke-linejoin="round"/>
<path d="M171.143 470.69H233.663L267.737 493.886H195.948L171.143 470.69Z" fill="white" stroke="#263238" stroke-linecap="round" stroke-linejoin="round"/>
<path d="M251.608 488.84H201.393" stroke="#263238" stroke-linecap="round" stroke-linejoin="round"/>
<path d="M246.767 484H196.552" stroke="#263238" stroke-linecap="round" stroke-linejoin="round"/>
<path d="M241.927 479.16H191.712" stroke="#263238" stroke-linecap="round" stroke-linejoin="round"/>
<path d="M127.583 485.21H190.103L224.177 508.406H152.388L127.583 485.21Z" fill="white" stroke="#263238" stroke-linecap="round" stroke-linejoin="round"/>
<path d="M208.048 503.36H157.833" stroke="#263238" stroke-linecap="round" stroke-linejoin="round"/>
<path d="M203.207 498.52H152.992" stroke="#263238" stroke-linecap="round" stroke-linejoin="round"/>
<path d="M198.368 493.68H148.153" stroke="#263238" stroke-linecap="round" stroke-linejoin="round"/>
<path d="M215.513 458.989C215.513 458.989 209.863 450.519 206.438 445.28C203.014 440.041 195.548 436.411 188.893 438.02C182.238 439.629 179.008 445.679 179.008 452.141C179.008 458.602 179.613 463.829 186.667 467.665C193.721 471.501 209.463 473.509 209.463 473.509C209.463 473.509 221.358 477.95 215.513 458.989Z" fill="white" stroke="#263238" stroke-linecap="round" stroke-linejoin="round"/>
<path d="M209.633 457.09C209.633 457.09 201.901 459.51 201.368 462.414C200.836 465.318 200.037 471.755 200.57 474.683C201.102 477.611 208.035 477.357 212.839 477.357C217.643 477.357 220.039 472.517 218.974 470.956C217.909 469.395 213.638 468.536 212.04 464.821C211.01 462.321 210.204 459.733 209.633 457.09Z" fill="white" stroke="#263238" stroke-linecap="round" stroke-linejoin="round"/>
<path d="M216.082 459.618C214.944 457.065 213.505 454.67 212.863 453.278C211.133 449.551 207.358 449.394 207.152 454.113C207.031 456.787 211.992 472.408 216.3 468.814C218.635 466.878 217.631 463.091 216.082 459.618Z" fill="white" stroke="#263238" stroke-linecap="round" stroke-linejoin="round"/>
<path d="M201.635 463.49C201.635 463.49 201.901 466.685 208.302 470.424C214.702 474.163 216.566 472.844 218.708 472.844" fill="white"/>
<path d="M201.635 463.49C201.635 463.49 201.901 466.685 208.302 470.424C214.702 474.163 216.566 472.844 218.708 472.844" stroke="#263238" stroke-linecap="round" stroke-linejoin="round"/>
<path d="M200.57 469.891C200.57 469.891 201.356 475.143 216.022 476.208L200.57 469.891Z" fill="white"/>
<path d="M200.57 469.891C200.57 469.891 201.356 475.143 216.022 476.208" stroke="#263238" stroke-linecap="round" stroke-linejoin="round"/>
<path d="M220.462 473.11L207.83 436.81C207.751 436.584 207.718 436.345 207.733 436.107C207.747 435.869 207.808 435.636 207.913 435.421C208.017 435.206 208.163 435.014 208.342 434.856C208.521 434.698 208.729 434.576 208.955 434.499C209.181 434.421 209.419 434.388 209.658 434.402C209.896 434.416 210.129 434.477 210.344 434.582C210.559 434.686 210.751 434.832 210.909 435.011C211.067 435.19 211.188 435.398 211.266 435.624L223.85 471.96L220.462 473.11Z" fill="#263238"/>
<path d="M220.462 473.146L223.874 477.514L223.886 471.96L220.462 473.146Z" fill="white"/>
<path d="M222.64 475.929L223.85 477.514V475.53C223.432 475.614 223.026 475.748 222.64 475.929Z" fill="#263238"/>
<path d="M211.266 435.6C211.106 435.144 210.771 434.771 210.335 434.562C209.899 434.353 209.399 434.326 208.943 434.487C208.487 434.647 208.114 434.982 207.905 435.418C207.696 435.853 207.669 436.354 207.83 436.81L209.04 440.44L212.428 439.145L211.266 435.6Z" fill="white"/>
<path d="M215.913 449.914C215.913 449.914 219.543 448.511 221.358 449.914C223.173 451.318 224.177 454.96 224.177 459.195C224.177 463.43 226.198 468.875 222.568 468.669C218.938 468.464 215.913 449.914 215.913 449.914Z" fill="white" stroke="#263238" stroke-linecap="round" stroke-linejoin="round"/>
<path d="M295.893 482.391L268.342 465.039H373.612L412.852 482.391H295.893Z" fill="white" stroke="#263238" stroke-linecap="round" stroke-linejoin="round"/>
<path d="M412.852 482.391H295.894L309.361 398.901H426.332L412.852 482.391Z" fill="white" stroke="#263238" stroke-linecap="round" stroke-linejoin="round"/>
<path d="M419.459 441.48C399.651 445.982 382.566 441.48 348.662 446.986C315.447 452.334 302.016 467.471 296.632 477.768L295.894 482.391H412.852L419.459 441.48Z" fill="#263238" stroke="#263238" stroke-miterlimit="10"/>
<path d="M419.58 451.766C419.58 451.766 412.949 452.613 410.565 455.335C408.181 458.058 410.057 459.086 412.102 459.086C414.147 459.086 420.947 459.086 424.008 455.456C426.489 452.6 424.855 451.427 419.58 451.766Z" fill="white" stroke="#263238" stroke-linecap="round" stroke-linejoin="round"/>
<path d="M417.365 471.162C417.365 471.162 410.734 472.009 408.351 474.731C405.967 477.454 407.843 478.47 409.887 478.47C411.932 478.47 418.733 478.47 421.794 474.901C424.286 471.997 422.641 470.823 417.365 471.162Z" fill="white" stroke="#263238" stroke-linecap="round" stroke-linejoin="round"/>
<path d="M418.055 466.056C418.055 466.056 411.412 466.903 409.029 469.625C406.645 472.348 408.52 473.376 410.565 473.376C412.61 473.376 419.41 473.376 422.472 469.746C424.964 466.903 423.319 465.717 418.055 466.056Z" fill="white" stroke="#263238" stroke-linecap="round" stroke-linejoin="round"/>
<path d="M418.224 460.272C418.224 460.272 411.581 461.119 409.21 463.841C406.838 466.564 408.69 467.592 410.734 467.592C412.779 467.592 419.58 467.592 422.641 463.962C425.134 461.107 423.5 459.933 418.224 460.272Z" fill="white" stroke="#263238" stroke-linecap="round" stroke-linejoin="round"/>
</svg>
